<svg xmlns="http://www.w3.org/2000/svg" viewBox="0 0 512 512">
  <defs>
    <linearGradient id="bg" x1="0" x2="1" y1="0" y2="1">
      <stop offset="0%" stop-color="#153455" />
      <stop offset="100%" stop-color="#0b162a" />
    </linearGradient>
    <linearGradient id="trim" x1="0" x2="1" y1="0" y2="1">
      <stop offset="0%" stop-color="#ffd66f" />
      <stop offset="100%" stop-color="#ffb703" />
    </linearGradient>
  </defs>
  <rect width="512" height="512" rx="112" fill="url(#bg)" />
  <circle cx="256" cy="134" r="56" fill="#8ed2ff" opacity="0.18" />
  <path d="M96 228 256 124l160 104v156c0 28-22 50-50 50H146c-28 0-50-22-50-50Z" fill="#f4efe3" />
  <path d="M76 230 256 112l180 118" fill="none" stroke="url(#trim)" stroke-linecap="round" stroke-linejoin="round" stroke-width="24" />
  <rect x="154" y="238" width="204" height="30" rx="15" fill="#153455" />
  <rect x="164" y="280" width="78" height="126" rx="18" fill="#2a4368" />
  <rect x="270" y="280" width="88" height="68" rx="16" fill="#8ed2ff" />
  <rect x="270" y="362" width="88" height="44" rx="16" fill="#ffd66f" />
  <path d="M224 198h64l22 34h-108Z" fill="#ffd66f" />
</svg>
